<?xml version="1.0" encoding="UTF-8" standalone="no"?>
<!DOCTYPE svg PUBLIC "-//W3C//DTD SVG 1.1//EN"
 "http://www.w3.org/Graphics/SVG/1.1/DTD/svg11.dtd">
<!-- Generated by graphviz version 2.40.1 (20161225.0304)
 -->
<!-- Title: dependencies Pages: 1 -->
<svg width="504pt" height="284pt"
 viewBox="0.00 0.00 504.00 284.00" xmlns="http://www.w3.org/2000/svg" xmlns:xlink="http://www.w3.org/1999/xlink">
<g id="graph0" class="graph" transform="scale(1 1) rotate(0) translate(4 280)">
<title>dependencies</title>
<polygon fill="#ffffff" stroke="transparent" points="-4,4 -4,-280 500,-280 500,4 -4,4"/>
<text text-anchor="start" x="227.0091" y="-42.4" font-family="sans-serif" font-weight="bold" font-size="14.00" fill="#000000">Legend</text>
<polygon fill="#ffffb3" stroke="transparent" points="14,-10 14,-30 34,-30 34,-10 14,-10"/>
<text text-anchor="start" x="37.629" y="-15.4" font-family="sans-serif" font-size="14.00" fill="#000000"> &#160;Declarations</text>
<polygon fill="#8dd3c7" stroke="transparent" points="127,-10 127,-30 147,-30 147,-10 127,-10"/>
<text text-anchor="start" x="150.7251" y="-15.4" font-family="sans-serif" font-size="14.00" fill="#000000"> &#160;Module</text>
<polygon fill="#80b1d3" stroke="transparent" points="213,-10 213,-30 233,-30 233,-10 213,-10"/>
<text text-anchor="start" x="236.7812" y="-15.4" font-family="sans-serif" font-size="14.00" fill="#000000"> &#160;Bootstrap</text>
<polygon fill="#fdb462" stroke="transparent" points="310,-10 310,-30 330,-30 330,-10 310,-10"/>
<text text-anchor="start" x="333.6732" y="-15.4" font-family="sans-serif" font-size="14.00" fill="#000000"> &#160;Providers</text>
<polygon fill="#fb8072" stroke="transparent" points="406,-10 406,-30 426,-30 426,-10 406,-10"/>
<text text-anchor="start" x="429.7258" y="-15.4" font-family="sans-serif" font-size="14.00" fill="#000000"> &#160;Exports</text>
<g id="clust1" class="cluster">
<title>cluster_BookModule</title>
<polygon fill="none" stroke="#000000" stroke-dasharray="1,5" points="16,-70 16,-268 480,-268 480,-70 16,-70"/>
</g>
<g id="clust2" class="cluster">
<title>cluster_BookModule_declarations</title>
<polygon fill="none" stroke="#000000" points="322,-78 322,-130 472,-130 472,-78 322,-78"/>
</g>
<g id="clust4" class="cluster">
<title>cluster_BookModule_imports</title>
<polygon fill="none" stroke="#000000" points="170,-78 170,-130 314,-130 314,-78 170,-78"/>
</g>
<g id="clust6" class="cluster">
<title>cluster_BookModule_bootstrap</title>
<polygon fill="none" stroke="#000000" points="166,-208 166,-260 318,-260 318,-208 166,-208"/>
</g>
<g id="clust7" class="cluster">
<title>cluster_BookModule_providers</title>
<polygon fill="none" stroke="#000000" points="24,-78 24,-130 162,-130 162,-78 24,-78"/>
</g>
<!-- BookListComponent -->
<g id="node1" class="node">
<title>BookListComponent</title>
<polygon fill="#ffffb3" stroke="#000000" points="463.9482,-122 330.0518,-122 330.0518,-86 463.9482,-86 463.9482,-122"/>
<text text-anchor="middle" x="397" y="-99.8" font-family="Times,serif" font-size="14.00" fill="#000000">BookListComponent</text>
</g>
<!-- BookModule -->
<g id="node2" class="node">
<title>BookModule</title>
<polygon fill="#8dd3c7" stroke="#000000" points="286.8865,-187 283.8865,-191 262.8865,-191 259.8865,-187 197.1135,-187 197.1135,-151 286.8865,-151 286.8865,-187"/>
<text text-anchor="middle" x="242" y="-164.8" font-family="Times,serif" font-size="14.00" fill="#000000">BookModule</text>
</g>
<!-- BookListComponent&#45;&gt;BookModule -->
<g id="edge1" class="edge">
<title>BookListComponent&#45;&gt;BookModule</title>
<path fill="none" stroke="#000000" d="M397,-122.1061C397,-141.3391 397,-169 397,-169 397,-169 297.2491,-169 297.2491,-169"/>
<polygon fill="#000000" stroke="#000000" points="297.2491,-165.5001 287.2491,-169 297.2491,-172.5001 297.2491,-165.5001"/>
</g>
<!-- BookListComponent  -->
<g id="node4" class="node">
<title>BookListComponent </title>
<polygon fill="#80b1d3" stroke="#000000" points="310.4474,-252 173.5526,-252 173.5526,-216 310.4474,-216 310.4474,-252"/>
<text text-anchor="middle" x="242" y="-229.8" font-family="Times,serif" font-size="14.00" fill="#000000">BookListComponent </text>
</g>
<!-- BookModule&#45;&gt;BookListComponent  -->
<g id="edge3" class="edge">
<title>BookModule&#45;&gt;BookListComponent </title>
<path fill="none" stroke="#000000" stroke-dasharray="1,5" d="M242,-187.1061C242,-187.1061 242,-205.991 242,-205.991"/>
<polygon fill="#000000" stroke="#000000" points="238.5001,-205.9909 242,-215.991 245.5001,-205.991 238.5001,-205.9909"/>
</g>
<!-- AppRoutingModule -->
<g id="node3" class="node">
<title>AppRoutingModule</title>
<polygon fill="#8dd3c7" stroke="#000000" points="306.2744,-122 303.2744,-126 282.2744,-126 279.2744,-122 177.7256,-122 177.7256,-86 306.2744,-86 306.2744,-122"/>
<text text-anchor="middle" x="242" y="-99.8" font-family="Times,serif" font-size="14.00" fill="#000000">AppRoutingModule</text>
</g>
<!-- AppRoutingModule&#45;&gt;BookModule -->
<g id="edge2" class="edge">
<title>AppRoutingModule&#45;&gt;BookModule</title>
<path fill="none" stroke="#000000" d="M242,-122.1061C242,-122.1061 242,-140.991 242,-140.991"/>
<polygon fill="#000000" stroke="#000000" points="238.5001,-140.9909 242,-150.991 245.5001,-140.991 238.5001,-140.9909"/>
</g>
<!-- BookService -->
<g id="node5" class="node">
<title>BookService</title>
<ellipse fill="#fdb462" stroke="#000000" cx="93" cy="-104" rx="60.8352" ry="18"/>
<text text-anchor="middle" x="93" y="-99.8" font-family="Times,serif" font-size="14.00" fill="#000000">BookService</text>
</g>
<!-- BookService&#45;&gt;BookModule -->
<g id="edge4" class="edge">
<title>BookService&#45;&gt;BookModule</title>
<path fill="none" stroke="#000000" d="M93,-122.1061C93,-141.3391 93,-169 93,-169 93,-169 186.8907,-169 186.8907,-169"/>
<polygon fill="#000000" stroke="#000000" points="186.8908,-172.5001 196.8907,-169 186.8907,-165.5001 186.8908,-172.5001"/>
</g>
</g>
</svg>
