<?xml version="1.0" encoding="UTF-8" standalone="no"?>
<!DOCTYPE svg PUBLIC "-//W3C//DTD SVG 1.1//EN"
 "http://www.w3.org/Graphics/SVG/1.1/DTD/svg11.dtd">
<!-- Generated by graphviz version 2.40.1 (20161225.0304)
 -->
<!-- Title: dependencies Pages: 1 -->
<svg width="508pt" height="284pt"
 viewBox="0.00 0.00 508.00 284.00" xmlns="http://www.w3.org/2000/svg" xmlns:xlink="http://www.w3.org/1999/xlink">
<g id="graph0" class="graph" transform="scale(1 1) rotate(0) translate(4 280)">
<title>dependencies</title>
<polygon fill="#ffffff" stroke="transparent" points="-4,4 -4,-280 504,-280 504,4 -4,4"/>
<text text-anchor="start" x="229.0091" y="-42.4" font-family="sans-serif" font-weight="bold" font-size="14.00" fill="#000000">Legend</text>
<polygon fill="#ffffb3" stroke="transparent" points="16,-10 16,-30 36,-30 36,-10 16,-10"/>
<text text-anchor="start" x="39.629" y="-15.4" font-family="sans-serif" font-size="14.00" fill="#000000"> &#160;Declarations</text>
<polygon fill="#8dd3c7" stroke="transparent" points="129,-10 129,-30 149,-30 149,-10 129,-10"/>
<text text-anchor="start" x="152.7251" y="-15.4" font-family="sans-serif" font-size="14.00" fill="#000000"> &#160;Module</text>
<polygon fill="#80b1d3" stroke="transparent" points="215,-10 215,-30 235,-30 235,-10 215,-10"/>
<text text-anchor="start" x="238.7812" y="-15.4" font-family="sans-serif" font-size="14.00" fill="#000000"> &#160;Bootstrap</text>
<polygon fill="#fdb462" stroke="transparent" points="312,-10 312,-30 332,-30 332,-10 312,-10"/>
<text text-anchor="start" x="335.6732" y="-15.4" font-family="sans-serif" font-size="14.00" fill="#000000"> &#160;Providers</text>
<polygon fill="#fb8072" stroke="transparent" points="408,-10 408,-30 428,-30 428,-10 408,-10"/>
<text text-anchor="start" x="431.7258" y="-15.4" font-family="sans-serif" font-size="14.00" fill="#000000"> &#160;Exports</text>
<g id="clust1" class="cluster">
<title>cluster_AuthorModule</title>
<polygon fill="none" stroke="#000000" stroke-dasharray="1,5" points="8,-70 8,-268 492,-268 492,-70 8,-70"/>
</g>
<g id="clust2" class="cluster">
<title>cluster_AuthorModule_declarations</title>
<polygon fill="none" stroke="#000000" points="326,-78 326,-130 484,-130 484,-78 326,-78"/>
</g>
<g id="clust4" class="cluster">
<title>cluster_AuthorModule_imports</title>
<polygon fill="none" stroke="#000000" points="174,-78 174,-130 318,-130 318,-78 174,-78"/>
</g>
<g id="clust6" class="cluster">
<title>cluster_AuthorModule_bootstrap</title>
<polygon fill="none" stroke="#000000" points="165,-208 165,-260 327,-260 327,-208 165,-208"/>
</g>
<g id="clust7" class="cluster">
<title>cluster_AuthorModule_providers</title>
<polygon fill="none" stroke="#000000" points="16,-78 16,-130 166,-130 166,-78 16,-78"/>
</g>
<!-- AuthorListComponent -->
<g id="node1" class="node">
<title>AuthorListComponent</title>
<polygon fill="#ffffb3" stroke="#000000" points="476.2688,-122 333.7312,-122 333.7312,-86 476.2688,-86 476.2688,-122"/>
<text text-anchor="middle" x="405" y="-99.8" font-family="Times,serif" font-size="14.00" fill="#000000">AuthorListComponent</text>
</g>
<!-- AuthorModule -->
<g id="node2" class="node">
<title>AuthorModule</title>
<polygon fill="#8dd3c7" stroke="#000000" points="295.7078,-187 292.7078,-191 271.7078,-191 268.7078,-187 196.2922,-187 196.2922,-151 295.7078,-151 295.7078,-187"/>
<text text-anchor="middle" x="246" y="-164.8" font-family="Times,serif" font-size="14.00" fill="#000000">AuthorModule</text>
</g>
<!-- AuthorListComponent&#45;&gt;AuthorModule -->
<g id="edge1" class="edge">
<title>AuthorListComponent&#45;&gt;AuthorModule</title>
<path fill="none" stroke="#000000" d="M405,-122.1061C405,-141.3391 405,-169 405,-169 405,-169 305.8723,-169 305.8723,-169"/>
<polygon fill="#000000" stroke="#000000" points="305.8724,-165.5001 295.8723,-169 305.8723,-172.5001 305.8724,-165.5001"/>
</g>
<!-- AuthorListComponent  -->
<g id="node4" class="node">
<title>AuthorListComponent </title>
<polygon fill="#80b1d3" stroke="#000000" points="319.2688,-252 172.7312,-252 172.7312,-216 319.2688,-216 319.2688,-252"/>
<text text-anchor="middle" x="246" y="-229.8" font-family="Times,serif" font-size="14.00" fill="#000000">AuthorListComponent </text>
</g>
<!-- AuthorModule&#45;&gt;AuthorListComponent  -->
<g id="edge3" class="edge">
<title>AuthorModule&#45;&gt;AuthorListComponent </title>
<path fill="none" stroke="#000000" stroke-dasharray="1,5" d="M246,-187.1061C246,-187.1061 246,-205.991 246,-205.991"/>
<polygon fill="#000000" stroke="#000000" points="242.5001,-205.9909 246,-215.991 249.5001,-205.991 242.5001,-205.9909"/>
</g>
<!-- AppRoutingModule -->
<g id="node3" class="node">
<title>AppRoutingModule</title>
<polygon fill="#8dd3c7" stroke="#000000" points="310.2744,-122 307.2744,-126 286.2744,-126 283.2744,-122 181.7256,-122 181.7256,-86 310.2744,-86 310.2744,-122"/>
<text text-anchor="middle" x="246" y="-99.8" font-family="Times,serif" font-size="14.00" fill="#000000">AppRoutingModule</text>
</g>
<!-- AppRoutingModule&#45;&gt;AuthorModule -->
<g id="edge2" class="edge">
<title>AppRoutingModule&#45;&gt;AuthorModule</title>
<path fill="none" stroke="#000000" d="M246,-122.1061C246,-122.1061 246,-140.991 246,-140.991"/>
<polygon fill="#000000" stroke="#000000" points="242.5001,-140.9909 246,-150.991 249.5001,-140.991 242.5001,-140.9909"/>
</g>
<!-- AuthorService -->
<g id="node5" class="node">
<title>AuthorService</title>
<ellipse fill="#fdb462" stroke="#000000" cx="91" cy="-104" rx="67.1946" ry="18"/>
<text text-anchor="middle" x="91" y="-99.8" font-family="Times,serif" font-size="14.00" fill="#000000">AuthorService</text>
</g>
<!-- AuthorService&#45;&gt;AuthorModule -->
<g id="edge4" class="edge">
<title>AuthorService&#45;&gt;AuthorModule</title>
<path fill="none" stroke="#000000" d="M91,-122.1061C91,-141.3391 91,-169 91,-169 91,-169 186.1038,-169 186.1038,-169"/>
<polygon fill="#000000" stroke="#000000" points="186.1039,-172.5001 196.1038,-169 186.1038,-165.5001 186.1039,-172.5001"/>
</g>
</g>
</svg>
