<?xml version="1.0" encoding="UTF-8" standalone="no"?>
<!DOCTYPE svg PUBLIC "-//W3C//DTD SVG 1.1//EN"
 "http://www.w3.org/Graphics/SVG/1.1/DTD/svg11.dtd">
<!-- Generated by graphviz version 2.40.1 (20161225.0304)
 -->
<!-- Title: dependencies Pages: 1 -->
<svg width="532pt" height="211pt"
 viewBox="0.00 0.00 532.00 211.00" xmlns="http://www.w3.org/2000/svg" xmlns:xlink="http://www.w3.org/1999/xlink">
<g id="graph0" class="graph" transform="scale(1 1) rotate(0) translate(4 207)">
<title>dependencies</title>
<polygon fill="#ffffff" stroke="transparent" points="-4,4 -4,-207 528,-207 528,4 -4,4"/>
<text text-anchor="start" x="241.0091" y="-42.4" font-family="sans-serif" font-weight="bold" font-size="14.00" fill="#000000">Legend</text>
<polygon fill="#ffffb3" stroke="transparent" points="28,-10 28,-30 48,-30 48,-10 28,-10"/>
<text text-anchor="start" x="51.629" y="-15.4" font-family="sans-serif" font-size="14.00" fill="#000000"> &#160;Declarations</text>
<polygon fill="#8dd3c7" stroke="transparent" points="141,-10 141,-30 161,-30 161,-10 141,-10"/>
<text text-anchor="start" x="164.7251" y="-15.4" font-family="sans-serif" font-size="14.00" fill="#000000"> &#160;Module</text>
<polygon fill="#80b1d3" stroke="transparent" points="227,-10 227,-30 247,-30 247,-10 227,-10"/>
<text text-anchor="start" x="250.7812" y="-15.4" font-family="sans-serif" font-size="14.00" fill="#000000"> &#160;Bootstrap</text>
<polygon fill="#fdb462" stroke="transparent" points="324,-10 324,-30 344,-30 344,-10 324,-10"/>
<text text-anchor="start" x="347.6732" y="-15.4" font-family="sans-serif" font-size="14.00" fill="#000000"> &#160;Providers</text>
<polygon fill="#fb8072" stroke="transparent" points="420,-10 420,-30 440,-30 440,-10 420,-10"/>
<text text-anchor="start" x="443.7258" y="-15.4" font-family="sans-serif" font-size="14.00" fill="#000000"> &#160;Exports</text>
<g id="clust1" class="cluster">
<title>cluster_EditorialModule</title>
<polygon fill="none" stroke="#000000" stroke-dasharray="1,5" points="8,-70 8,-195 516,-195 516,-70 8,-70"/>
</g>
<g id="clust2" class="cluster">
<title>cluster_EditorialModule_declarations</title>
<polygon fill="none" stroke="#000000" points="340,-78 340,-130 508,-130 508,-78 340,-78"/>
</g>
<g id="clust4" class="cluster">
<title>cluster_EditorialModule_imports</title>
<polygon fill="none" stroke="#000000" points="188,-78 188,-130 332,-130 332,-78 188,-78"/>
</g>
<g id="clust7" class="cluster">
<title>cluster_EditorialModule_providers</title>
<polygon fill="none" stroke="#000000" points="16,-78 16,-130 180,-130 180,-78 16,-78"/>
</g>
<!-- EditorialListComponent -->
<g id="node1" class="node">
<title>EditorialListComponent</title>
<polygon fill="#ffffb3" stroke="#000000" points="500.101,-122 347.899,-122 347.899,-86 500.101,-86 500.101,-122"/>
<text text-anchor="middle" x="424" y="-99.8" font-family="Times,serif" font-size="14.00" fill="#000000">EditorialListComponent</text>
</g>
<!-- EditorialModule -->
<g id="node2" class="node">
<title>EditorialModule</title>
<polygon fill="#8dd3c7" stroke="#000000" points="314.041,-187 311.041,-191 290.041,-191 287.041,-187 205.959,-187 205.959,-151 314.041,-151 314.041,-187"/>
<text text-anchor="middle" x="260" y="-164.8" font-family="Times,serif" font-size="14.00" fill="#000000">EditorialModule</text>
</g>
<!-- EditorialListComponent&#45;&gt;EditorialModule -->
<g id="edge1" class="edge">
<title>EditorialListComponent&#45;&gt;EditorialModule</title>
<path fill="none" stroke="#000000" d="M424,-122.1061C424,-141.3391 424,-169 424,-169 424,-169 324.1542,-169 324.1542,-169"/>
<polygon fill="#000000" stroke="#000000" points="324.1543,-165.5001 314.1542,-169 324.1542,-172.5001 324.1543,-165.5001"/>
</g>
<!-- AppRoutingModule -->
<g id="node3" class="node">
<title>AppRoutingModule</title>
<polygon fill="#8dd3c7" stroke="#000000" points="324.2744,-122 321.2744,-126 300.2744,-126 297.2744,-122 195.7256,-122 195.7256,-86 324.2744,-86 324.2744,-122"/>
<text text-anchor="middle" x="260" y="-99.8" font-family="Times,serif" font-size="14.00" fill="#000000">AppRoutingModule</text>
</g>
<!-- AppRoutingModule&#45;&gt;EditorialModule -->
<g id="edge2" class="edge">
<title>AppRoutingModule&#45;&gt;EditorialModule</title>
<path fill="none" stroke="#000000" d="M260,-122.1061C260,-122.1061 260,-140.991 260,-140.991"/>
<polygon fill="#000000" stroke="#000000" points="256.5001,-140.9909 260,-150.991 263.5001,-140.991 256.5001,-140.9909"/>
</g>
<!-- EditorialService -->
<g id="node4" class="node">
<title>EditorialService</title>
<ellipse fill="#fdb462" stroke="#000000" cx="98" cy="-104" rx="73.5695" ry="18"/>
<text text-anchor="middle" x="98" y="-99.8" font-family="Times,serif" font-size="14.00" fill="#000000">EditorialService</text>
</g>
<!-- EditorialService&#45;&gt;EditorialModule -->
<g id="edge3" class="edge">
<title>EditorialService&#45;&gt;EditorialModule</title>
<path fill="none" stroke="#000000" d="M98,-122.1061C98,-141.3391 98,-169 98,-169 98,-169 195.6057,-169 195.6057,-169"/>
<polygon fill="#000000" stroke="#000000" points="195.6057,-172.5001 205.6057,-169 195.6056,-165.5001 195.6057,-172.5001"/>
</g>
</g>
</svg>
