<?xml version="1.0" encoding="UTF-8" standalone="no"?>
<!DOCTYPE svg PUBLIC "-//W3C//DTD SVG 1.1//EN"
 "http://www.w3.org/Graphics/SVG/1.1/DTD/svg11.dtd">
<!-- Generated by graphviz version 2.40.1 (20161225.0304)
 -->
<!-- Title: dependencies Pages: 1 -->
<svg width="666pt" height="284pt"
 viewBox="0.00 0.00 666.00 284.00" xmlns="http://www.w3.org/2000/svg" xmlns:xlink="http://www.w3.org/1999/xlink">
<g id="graph0" class="graph" transform="scale(1 1) rotate(0) translate(4 280)">
<title>dependencies</title>
<polygon fill="#ffffff" stroke="transparent" points="-4,4 -4,-280 662,-280 662,4 -4,4"/>
<text text-anchor="start" x="308.0091" y="-42.4" font-family="sans-serif" font-weight="bold" font-size="14.00" fill="#000000">Legend</text>
<polygon fill="#ffffb3" stroke="transparent" points="95,-10 95,-30 115,-30 115,-10 95,-10"/>
<text text-anchor="start" x="118.629" y="-15.4" font-family="sans-serif" font-size="14.00" fill="#000000"> &#160;Declarations</text>
<polygon fill="#8dd3c7" stroke="transparent" points="208,-10 208,-30 228,-30 228,-10 208,-10"/>
<text text-anchor="start" x="231.7251" y="-15.4" font-family="sans-serif" font-size="14.00" fill="#000000"> &#160;Module</text>
<polygon fill="#80b1d3" stroke="transparent" points="294,-10 294,-30 314,-30 314,-10 294,-10"/>
<text text-anchor="start" x="317.7812" y="-15.4" font-family="sans-serif" font-size="14.00" fill="#000000"> &#160;Bootstrap</text>
<polygon fill="#fdb462" stroke="transparent" points="391,-10 391,-30 411,-30 411,-10 391,-10"/>
<text text-anchor="start" x="414.6732" y="-15.4" font-family="sans-serif" font-size="14.00" fill="#000000"> &#160;Providers</text>
<polygon fill="#fb8072" stroke="transparent" points="487,-10 487,-30 507,-30 507,-10 487,-10"/>
<text text-anchor="start" x="510.7258" y="-15.4" font-family="sans-serif" font-size="14.00" fill="#000000"> &#160;Exports</text>
<g id="clust1" class="cluster">
<title>cluster_AppModule</title>
<polygon fill="none" stroke="#000000" stroke-dasharray="1,5" points="8,-70 8,-268 650,-268 650,-70 8,-70"/>
</g>
<g id="clust2" class="cluster">
<title>cluster_AppModule_declarations</title>
<polygon fill="none" stroke="#000000" points="520,-78 520,-130 642,-130 642,-78 520,-78"/>
</g>
<g id="clust4" class="cluster">
<title>cluster_AppModule_imports</title>
<polygon fill="none" stroke="#000000" points="16,-78 16,-130 512,-130 512,-78 16,-78"/>
</g>
<g id="clust6" class="cluster">
<title>cluster_AppModule_bootstrap</title>
<polygon fill="none" stroke="#000000" points="246,-208 246,-260 370,-260 370,-208 246,-208"/>
</g>
<!-- AppComponent -->
<g id="node1" class="node">
<title>AppComponent</title>
<polygon fill="#ffffb3" stroke="#000000" points="633.9399,-122 528.0601,-122 528.0601,-86 633.9399,-86 633.9399,-122"/>
<text text-anchor="middle" x="581" y="-99.8" font-family="Times,serif" font-size="14.00" fill="#000000">AppComponent</text>
</g>
<!-- AppModule -->
<g id="node2" class="node">
<title>AppModule</title>
<polygon fill="#8dd3c7" stroke="#000000" points="349.6571,-187 346.6571,-191 325.6571,-191 322.6571,-187 266.3429,-187 266.3429,-151 349.6571,-151 349.6571,-187"/>
<text text-anchor="middle" x="308" y="-164.8" font-family="Times,serif" font-size="14.00" fill="#000000">AppModule</text>
</g>
<!-- AppComponent&#45;&gt;AppModule -->
<g id="edge1" class="edge">
<title>AppComponent&#45;&gt;AppModule</title>
<path fill="none" stroke="#000000" d="M581,-122.2843C581,-143.3211 581,-175 581,-175 581,-175 359.76,-175 359.76,-175"/>
<polygon fill="#000000" stroke="#000000" points="359.76,-171.5001 349.76,-175 359.76,-178.5001 359.76,-171.5001"/>
</g>
<!-- AppComponent  -->
<g id="node7" class="node">
<title>AppComponent </title>
<polygon fill="#80b1d3" stroke="#000000" points="362.439,-252 253.561,-252 253.561,-216 362.439,-216 362.439,-252"/>
<text text-anchor="middle" x="308" y="-229.8" font-family="Times,serif" font-size="14.00" fill="#000000">AppComponent </text>
</g>
<!-- AppModule&#45;&gt;AppComponent  -->
<g id="edge6" class="edge">
<title>AppModule&#45;&gt;AppComponent </title>
<path fill="none" stroke="#000000" stroke-dasharray="1,5" d="M308,-187.1061C308,-187.1061 308,-205.991 308,-205.991"/>
<polygon fill="#000000" stroke="#000000" points="304.5001,-205.9909 308,-215.991 311.5001,-205.991 304.5001,-205.9909"/>
</g>
<!-- AppRoutingModule -->
<g id="node3" class="node">
<title>AppRoutingModule</title>
<polygon fill="#8dd3c7" stroke="#000000" points="504.2744,-122 501.2744,-126 480.2744,-126 477.2744,-122 375.7256,-122 375.7256,-86 504.2744,-86 504.2744,-122"/>
<text text-anchor="middle" x="440" y="-99.8" font-family="Times,serif" font-size="14.00" fill="#000000">AppRoutingModule</text>
</g>
<!-- AppRoutingModule&#45;&gt;AppModule -->
<g id="edge2" class="edge">
<title>AppRoutingModule&#45;&gt;AppModule</title>
<path fill="none" stroke="#000000" d="M440,-122.0225C440,-139.3734 440,-163 440,-163 440,-163 359.7656,-163 359.7656,-163"/>
<polygon fill="#000000" stroke="#000000" points="359.7657,-159.5001 349.7656,-163 359.7656,-166.5001 359.7657,-159.5001"/>
</g>
<!-- AuthorModule -->
<g id="node4" class="node">
<title>AuthorModule</title>
<polygon fill="#8dd3c7" stroke="#000000" points="357.7078,-122 354.7078,-126 333.7078,-126 330.7078,-122 258.2922,-122 258.2922,-86 357.7078,-86 357.7078,-122"/>
<text text-anchor="middle" x="308" y="-99.8" font-family="Times,serif" font-size="14.00" fill="#000000">AuthorModule</text>
</g>
<!-- AuthorModule&#45;&gt;AppModule -->
<g id="edge3" class="edge">
<title>AuthorModule&#45;&gt;AppModule</title>
<path fill="none" stroke="#000000" d="M308,-122.1061C308,-122.1061 308,-140.991 308,-140.991"/>
<polygon fill="#000000" stroke="#000000" points="304.5001,-140.9909 308,-150.991 311.5001,-140.991 304.5001,-140.9909"/>
</g>
<!-- BookModule -->
<g id="node5" class="node">
<title>BookModule</title>
<polygon fill="#8dd3c7" stroke="#000000" points="239.8865,-122 236.8865,-126 215.8865,-126 212.8865,-122 150.1135,-122 150.1135,-86 239.8865,-86 239.8865,-122"/>
<text text-anchor="middle" x="195" y="-99.8" font-family="Times,serif" font-size="14.00" fill="#000000">BookModule</text>
</g>
<!-- BookModule&#45;&gt;AppModule -->
<g id="edge4" class="edge">
<title>BookModule&#45;&gt;AppModule</title>
<path fill="none" stroke="#000000" d="M195,-122.0225C195,-139.3734 195,-163 195,-163 195,-163 256.244,-163 256.244,-163"/>
<polygon fill="#000000" stroke="#000000" points="256.2441,-166.5001 266.244,-163 256.244,-159.5001 256.2441,-166.5001"/>
</g>
<!-- EditorialModule -->
<g id="node6" class="node">
<title>EditorialModule</title>
<polygon fill="#8dd3c7" stroke="#000000" points="132.041,-122 129.041,-126 108.041,-126 105.041,-122 23.959,-122 23.959,-86 132.041,-86 132.041,-122"/>
<text text-anchor="middle" x="78" y="-99.8" font-family="Times,serif" font-size="14.00" fill="#000000">EditorialModule</text>
</g>
<!-- EditorialModule&#45;&gt;AppModule -->
<g id="edge5" class="edge">
<title>EditorialModule&#45;&gt;AppModule</title>
<path fill="none" stroke="#000000" d="M78,-122.2843C78,-143.3211 78,-175 78,-175 78,-175 256.0819,-175 256.0819,-175"/>
<polygon fill="#000000" stroke="#000000" points="256.0819,-178.5001 266.0819,-175 256.0819,-171.5001 256.0819,-178.5001"/>
</g>
</g>
</svg>
