<?xml version="1.0" encoding="UTF-8" standalone="no"?>
<!DOCTYPE svg PUBLIC "-//W3C//DTD SVG 1.1//EN"
 "http://www.w3.org/Graphics/SVG/1.1/DTD/svg11.dtd">
<!-- Generated by graphviz version 2.40.1 (20161225.0304)
 -->
<!-- Title: dependencies Pages: 1 -->
<svg width="1886pt" height="352pt"
 viewBox="0.00 0.00 1886.00 352.00" xmlns="http://www.w3.org/2000/svg" xmlns:xlink="http://www.w3.org/1999/xlink">
<g id="graph0" class="graph" transform="scale(1 1) rotate(0) translate(4 348)">
<title>dependencies</title>
<polygon fill="#ffffff" stroke="transparent" points="-4,4 -4,-348 1882,-348 1882,4 -4,4"/>
<text text-anchor="start" x="918.0091" y="-42.4" font-family="sans-serif" font-weight="bold" font-size="14.00" fill="#000000">Legend</text>
<polygon fill="#ffffb3" stroke="transparent" points="705,-10 705,-30 725,-30 725,-10 705,-10"/>
<text text-anchor="start" x="728.629" y="-15.4" font-family="sans-serif" font-size="14.00" fill="#000000"> &#160;Declarations</text>
<polygon fill="#8dd3c7" stroke="transparent" points="818,-10 818,-30 838,-30 838,-10 818,-10"/>
<text text-anchor="start" x="841.7251" y="-15.4" font-family="sans-serif" font-size="14.00" fill="#000000"> &#160;Module</text>
<polygon fill="#80b1d3" stroke="transparent" points="904,-10 904,-30 924,-30 924,-10 904,-10"/>
<text text-anchor="start" x="927.7812" y="-15.4" font-family="sans-serif" font-size="14.00" fill="#000000"> &#160;Bootstrap</text>
<polygon fill="#fdb462" stroke="transparent" points="1001,-10 1001,-30 1021,-30 1021,-10 1001,-10"/>
<text text-anchor="start" x="1024.6732" y="-15.4" font-family="sans-serif" font-size="14.00" fill="#000000"> &#160;Providers</text>
<polygon fill="#fb8072" stroke="transparent" points="1097,-10 1097,-30 1117,-30 1117,-10 1097,-10"/>
<text text-anchor="start" x="1120.7258" y="-15.4" font-family="sans-serif" font-size="14.00" fill="#000000"> &#160;Exports</text>
<g id="clust1" class="cluster">
<title>cluster_AppModule</title>
<polygon fill="none" stroke="#000000" stroke-dasharray="1,5" points="8,-70 8,-336 516,-336 516,-70 8,-70"/>
</g>
<g id="clust2" class="cluster">
<title>cluster_AppModule_declarations</title>
<polygon fill="none" stroke="#000000" points="386,-146 386,-198 508,-198 508,-146 386,-146"/>
</g>
<g id="clust4" class="cluster">
<title>cluster_AppModule_imports</title>
<polygon fill="none" stroke="#000000" points="28,-78 28,-198 378,-198 378,-78 28,-78"/>
</g>
<g id="clust6" class="cluster">
<title>cluster_AppModule_bootstrap</title>
<polygon fill="none" stroke="#000000" points="137,-276 137,-328 261,-328 261,-276 137,-276"/>
</g>
<g id="clust14" class="cluster">
<title>cluster_AuthorModule</title>
<polygon fill="none" stroke="#000000" stroke-dasharray="1,5" points="524,-70 524,-138 1026,-138 1026,-70 524,-70"/>
</g>
<g id="clust15" class="cluster">
<title>cluster_AuthorModule_declarations</title>
<polygon fill="none" stroke="#000000" points="860,-78 860,-130 1018,-130 1018,-78 860,-78"/>
</g>
<g id="clust19" class="cluster">
<title>cluster_AuthorModule_bootstrap</title>
<polygon fill="none" stroke="#000000" points="690,-78 690,-130 852,-130 852,-78 690,-78"/>
</g>
<g id="clust20" class="cluster">
<title>cluster_AuthorModule_providers</title>
<polygon fill="none" stroke="#000000" points="532,-78 532,-130 682,-130 682,-78 532,-78"/>
</g>
<g id="clust21" class="cluster">
<title>cluster_BookModule</title>
<polygon fill="none" stroke="#000000" stroke-dasharray="1,5" points="1034,-70 1034,-138 1506,-138 1506,-70 1034,-70"/>
</g>
<g id="clust22" class="cluster">
<title>cluster_BookModule_declarations</title>
<polygon fill="none" stroke="#000000" points="1348,-78 1348,-130 1498,-130 1498,-78 1348,-78"/>
</g>
<g id="clust26" class="cluster">
<title>cluster_BookModule_bootstrap</title>
<polygon fill="none" stroke="#000000" points="1188,-78 1188,-130 1340,-130 1340,-78 1188,-78"/>
</g>
<g id="clust27" class="cluster">
<title>cluster_BookModule_providers</title>
<polygon fill="none" stroke="#000000" points="1042,-78 1042,-130 1180,-130 1180,-78 1042,-78"/>
</g>
<g id="clust28" class="cluster">
<title>cluster_EditorialModule</title>
<polygon fill="none" stroke="#000000" stroke-dasharray="1,5" points="1514,-70 1514,-138 1870,-138 1870,-70 1514,-70"/>
</g>
<g id="clust29" class="cluster">
<title>cluster_EditorialModule_declarations</title>
<polygon fill="none" stroke="#000000" points="1694,-78 1694,-130 1862,-130 1862,-78 1694,-78"/>
</g>
<g id="clust34" class="cluster">
<title>cluster_EditorialModule_providers</title>
<polygon fill="none" stroke="#000000" points="1522,-78 1522,-130 1686,-130 1686,-78 1522,-78"/>
</g>
<!-- AppComponent -->
<g id="node1" class="node">
<title>AppComponent</title>
<polygon fill="#ffffb3" stroke="#000000" points="499.9399,-190 394.0601,-190 394.0601,-154 499.9399,-154 499.9399,-190"/>
<text text-anchor="middle" x="447" y="-167.8" font-family="Times,serif" font-size="14.00" fill="#000000">AppComponent</text>
</g>
<!-- AppModule -->
<g id="node2" class="node">
<title>AppModule</title>
<polygon fill="#8dd3c7" stroke="#000000" points="240.6571,-255 237.6571,-259 216.6571,-259 213.6571,-255 157.3429,-255 157.3429,-219 240.6571,-219 240.6571,-255"/>
<text text-anchor="middle" x="199" y="-232.8" font-family="Times,serif" font-size="14.00" fill="#000000">AppModule</text>
</g>
<!-- AppComponent&#45;&gt;AppModule -->
<g id="edge1" class="edge">
<title>AppComponent&#45;&gt;AppModule</title>
<path fill="none" stroke="#000000" d="M447,-190.2843C447,-211.3211 447,-243 447,-243 447,-243 250.7894,-243 250.7894,-243"/>
<polygon fill="#000000" stroke="#000000" points="250.7894,-239.5001 240.7894,-243 250.7893,-246.5001 250.7894,-239.5001"/>
</g>
<!-- AppComponent  -->
<g id="node7" class="node">
<title>AppComponent </title>
<polygon fill="#80b1d3" stroke="#000000" points="253.439,-320 144.561,-320 144.561,-284 253.439,-284 253.439,-320"/>
<text text-anchor="middle" x="199" y="-297.8" font-family="Times,serif" font-size="14.00" fill="#000000">AppComponent </text>
</g>
<!-- AppModule&#45;&gt;AppComponent  -->
<g id="edge6" class="edge">
<title>AppModule&#45;&gt;AppComponent </title>
<path fill="none" stroke="#000000" stroke-dasharray="1,5" d="M199,-255.1061C199,-255.1061 199,-273.991 199,-273.991"/>
<polygon fill="#000000" stroke="#000000" points="195.5001,-273.9909 199,-283.991 202.5001,-273.991 195.5001,-273.9909"/>
</g>
<!-- AppRoutingModule -->
<g id="node3" class="node">
<title>AppRoutingModule</title>
<polygon fill="#8dd3c7" stroke="#000000" points="213.2744,-122 210.2744,-126 189.2744,-126 186.2744,-122 84.7256,-122 84.7256,-86 213.2744,-86 213.2744,-122"/>
<text text-anchor="middle" x="149" y="-99.8" font-family="Times,serif" font-size="14.00" fill="#000000">AppRoutingModule</text>
</g>
<!-- AppRoutingModule&#45;&gt;AppModule -->
<g id="edge2" class="edge">
<title>AppRoutingModule&#45;&gt;AppModule</title>
<path fill="none" stroke="#000000" d="M149.2937,-122.196C149.2937,-157.3126 149.2937,-231 149.2937,-231 149.2937,-231 150.0703,-231 150.0703,-231"/>
<polygon fill="#000000" stroke="#000000" points="147.0603,-234.5001 157.0603,-231 147.0602,-227.5001 147.0603,-234.5001"/>
</g>
<!-- AuthorModule -->
<g id="node4" class="node">
<title>AuthorModule</title>
<polygon fill="#8dd3c7" stroke="#000000" points="135.7078,-190 132.7078,-194 111.7078,-194 108.7078,-190 36.2922,-190 36.2922,-154 135.7078,-154 135.7078,-190"/>
<text text-anchor="middle" x="86" y="-167.8" font-family="Times,serif" font-size="14.00" fill="#000000">AuthorModule</text>
</g>
<!-- AppRoutingModule&#45;&gt;AuthorModule -->
<g id="edge8" class="edge">
<title>AppRoutingModule&#45;&gt;AuthorModule</title>
<path fill="none" stroke="#000000" d="M94.8111,-122.2228C94.8111,-122.2228 94.8111,-143.7269 94.8111,-143.7269"/>
<polygon fill="#000000" stroke="#000000" points="91.3112,-143.7269 94.8111,-153.7269 98.3112,-143.727 91.3112,-143.7269"/>
</g>
<!-- BookModule -->
<g id="node5" class="node">
<title>BookModule</title>
<polygon fill="#8dd3c7" stroke="#000000" points="243.8865,-190 240.8865,-194 219.8865,-194 216.8865,-190 154.1135,-190 154.1135,-154 243.8865,-154 243.8865,-190"/>
<text text-anchor="middle" x="199" y="-167.8" font-family="Times,serif" font-size="14.00" fill="#000000">BookModule</text>
</g>
<!-- AppRoutingModule&#45;&gt;BookModule -->
<g id="edge12" class="edge">
<title>AppRoutingModule&#45;&gt;BookModule</title>
<path fill="none" stroke="#000000" d="M183.722,-122.2228C183.722,-122.2228 183.722,-143.7269 183.722,-143.7269"/>
<polygon fill="#000000" stroke="#000000" points="180.222,-143.7269 183.722,-153.7269 187.222,-143.727 180.222,-143.7269"/>
</g>
<!-- EditorialModule -->
<g id="node6" class="node">
<title>EditorialModule</title>
<polygon fill="#8dd3c7" stroke="#000000" points="370.041,-190 367.041,-194 346.041,-194 343.041,-190 261.959,-190 261.959,-154 370.041,-154 370.041,-190"/>
<text text-anchor="middle" x="316" y="-167.8" font-family="Times,serif" font-size="14.00" fill="#000000">EditorialModule</text>
</g>
<!-- AppRoutingModule&#45;&gt;EditorialModule -->
<g id="edge16" class="edge">
<title>AppRoutingModule&#45;&gt;EditorialModule</title>
<path fill="none" stroke="#000000" d="M213.6102,-104C250.2573,-104 288.865,-104 288.865,-104 288.865,-104 288.865,-143.7772 288.865,-143.7772"/>
<polygon fill="#000000" stroke="#000000" points="285.3651,-143.7772 288.865,-153.7772 292.3651,-143.7773 285.3651,-143.7772"/>
</g>
<!-- AuthorModule&#45;&gt;AppModule -->
<g id="edge3" class="edge">
<title>AuthorModule&#45;&gt;AppModule</title>
<path fill="none" stroke="#000000" d="M86,-190.2843C86,-211.3211 86,-243 86,-243 86,-243 147.244,-243 147.244,-243"/>
<polygon fill="#000000" stroke="#000000" points="147.2441,-246.5001 157.244,-243 147.244,-239.5001 147.2441,-246.5001"/>
</g>
<!-- AuthorListComponent  -->
<g id="node9" class="node">
<title>AuthorListComponent </title>
<polygon fill="#80b1d3" stroke="#000000" points="844.2688,-122 697.7312,-122 697.7312,-86 844.2688,-86 844.2688,-122"/>
<text text-anchor="middle" x="771" y="-99.8" font-family="Times,serif" font-size="14.00" fill="#000000">AuthorListComponent </text>
</g>
<!-- AuthorModule&#45;&gt;AuthorListComponent  -->
<g id="edge9" class="edge">
<title>AuthorModule&#45;&gt;AuthorListComponent </title>
<path fill="none" stroke="#000000" stroke-dasharray="1,5" d="M105.0093,-153.9445C105.0093,-142.561 105.0093,-130 105.0093,-130 105.0093,-130 771,-130 771,-130 771,-130 771,-129.2058 771,-129.2058"/>
<polygon fill="#000000" stroke="#000000" points="774.5001,-132.0578 771,-122.0579 767.5001,-132.0579 774.5001,-132.0578"/>
</g>
<!-- BookModule&#45;&gt;AppModule -->
<g id="edge4" class="edge">
<title>BookModule&#45;&gt;AppModule</title>
<path fill="none" stroke="#000000" d="M199,-190.1061C199,-190.1061 199,-208.991 199,-208.991"/>
<polygon fill="#000000" stroke="#000000" points="195.5001,-208.9909 199,-218.991 202.5001,-208.991 195.5001,-208.9909"/>
</g>
<!-- BookListComponent  -->
<g id="node12" class="node">
<title>BookListComponent </title>
<polygon fill="#80b1d3" stroke="#000000" points="1332.4474,-122 1195.5526,-122 1195.5526,-86 1332.4474,-86 1332.4474,-122"/>
<text text-anchor="middle" x="1264" y="-99.8" font-family="Times,serif" font-size="14.00" fill="#000000">BookListComponent </text>
</g>
<!-- BookModule&#45;&gt;BookListComponent  -->
<g id="edge13" class="edge">
<title>BookModule&#45;&gt;BookListComponent </title>
<path fill="none" stroke="#000000" stroke-dasharray="1,5" d="M221.0261,-153.7566C221.0261,-146.5703 221.0261,-140 221.0261,-140 221.0261,-140 1264,-140 1264,-140 1264,-140 1264,-132.4218 1264,-132.4218"/>
<polygon fill="#000000" stroke="#000000" points="1267.5001,-132.4218 1264,-122.4218 1260.5001,-132.4219 1267.5001,-132.4218"/>
</g>
<!-- EditorialModule&#45;&gt;AppModule -->
<g id="edge5" class="edge">
<title>EditorialModule&#45;&gt;AppModule</title>
<path fill="none" stroke="#000000" d="M316,-190.0225C316,-207.3734 316,-231 316,-231 316,-231 250.9092,-231 250.9092,-231"/>
<polygon fill="#000000" stroke="#000000" points="250.9093,-227.5001 240.9092,-231 250.9092,-234.5001 250.9093,-227.5001"/>
</g>
<!-- AuthorListComponent -->
<g id="node8" class="node">
<title>AuthorListComponent</title>
<polygon fill="#ffffb3" stroke="#000000" points="1010.2688,-122 867.7312,-122 867.7312,-86 1010.2688,-86 1010.2688,-122"/>
<text text-anchor="middle" x="939" y="-99.8" font-family="Times,serif" font-size="14.00" fill="#000000">AuthorListComponent</text>
</g>
<!-- AuthorListComponent&#45;&gt;AuthorModule -->
<g id="edge7" class="edge">
<title>AuthorListComponent&#45;&gt;AuthorModule</title>
<path fill="none" stroke="#000000" d="M939,-122.2015C939,-128.028 939,-133 939,-133 939,-133 125.4056,-133 125.4056,-133 125.4056,-133 125.4056,-143.8701 125.4056,-143.8701"/>
<polygon fill="#000000" stroke="#000000" points="121.9057,-143.8701 125.4056,-153.8701 128.9057,-143.8701 121.9057,-143.8701"/>
</g>
<!-- AuthorService -->
<g id="node10" class="node">
<title>AuthorService</title>
<ellipse fill="#fdb462" stroke="#000000" cx="607" cy="-104" rx="67.1946" ry="18"/>
<text text-anchor="middle" x="607" y="-99.8" font-family="Times,serif" font-size="14.00" fill="#000000">AuthorService</text>
</g>
<!-- AuthorService&#45;&gt;AuthorModule -->
<g id="edge10" class="edge">
<title>AuthorService&#45;&gt;AuthorModule</title>
<path fill="none" stroke="#000000" d="M607,-122.1679C607,-124.4478 607,-126 607,-126 607,-126 115.2074,-126 115.2074,-126 115.2074,-126 115.2074,-143.8196 115.2074,-143.8196"/>
<polygon fill="#000000" stroke="#000000" points="111.7075,-143.8195 115.2074,-153.8196 118.7075,-143.8196 111.7075,-143.8195"/>
</g>
<!-- BookListComponent -->
<g id="node11" class="node">
<title>BookListComponent</title>
<polygon fill="#ffffb3" stroke="#000000" points="1489.9482,-122 1356.0518,-122 1356.0518,-86 1489.9482,-86 1489.9482,-122"/>
<text text-anchor="middle" x="1423" y="-99.8" font-family="Times,serif" font-size="14.00" fill="#000000">BookListComponent</text>
</g>
<!-- BookListComponent&#45;&gt;BookModule -->
<g id="edge11" class="edge">
<title>BookListComponent&#45;&gt;BookModule</title>
<path fill="none" stroke="#000000" d="M1423,-122.1274C1423,-132.7109 1423,-144 1423,-144 1423,-144 236.3042,-144 236.3042,-144 236.3042,-144 236.3042,-144.9793 236.3042,-144.9793"/>
<polygon fill="#000000" stroke="#000000" points="232.8043,-143.793 236.3042,-153.793 239.8043,-143.7931 232.8043,-143.793"/>
</g>
<!-- BookService -->
<g id="node13" class="node">
<title>BookService</title>
<ellipse fill="#fdb462" stroke="#000000" cx="1111" cy="-104" rx="60.8352" ry="18"/>
<text text-anchor="middle" x="1111" y="-99.8" font-family="Times,serif" font-size="14.00" fill="#000000">BookService</text>
</g>
<!-- BookService&#45;&gt;BookModule -->
<g id="edge14" class="edge">
<title>BookService&#45;&gt;BookModule</title>
<path fill="none" stroke="#000000" d="M1111,-122.0449C1111,-129.749 1111,-137 1111,-137 1111,-137 228.6652,-137 228.6652,-137 228.6652,-137 228.6652,-143.68 228.6652,-143.68"/>
<polygon fill="#000000" stroke="#000000" points="225.1652,-143.6799 228.6652,-153.68 232.1652,-143.68 225.1652,-143.6799"/>
</g>
<!-- EditorialListComponent -->
<g id="node14" class="node">
<title>EditorialListComponent</title>
<polygon fill="#ffffb3" stroke="#000000" points="1854.101,-122 1701.899,-122 1701.899,-86 1854.101,-86 1854.101,-122"/>
<text text-anchor="middle" x="1778" y="-99.8" font-family="Times,serif" font-size="14.00" fill="#000000">EditorialListComponent</text>
</g>
<!-- EditorialListComponent&#45;&gt;EditorialModule -->
<g id="edge15" class="edge">
<title>EditorialListComponent&#45;&gt;EditorialModule</title>
<path fill="none" stroke="#000000" d="M1778,-122.037C1778,-135.2913 1778,-151 1778,-151 1778,-151 343.135,-151 343.135,-151 343.135,-151 343.135,-151.292 343.135,-151.292"/>
<polygon fill="#000000" stroke="#000000" points="339.6354,-143.9198 343.135,-153.92 346.6354,-143.9201 339.6354,-143.9198"/>
</g>
<!-- EditorialService -->
<g id="node15" class="node">
<title>EditorialService</title>
<ellipse fill="#fdb462" stroke="#000000" cx="1604" cy="-104" rx="73.5695" ry="18"/>
<text text-anchor="middle" x="1604" y="-99.8" font-family="Times,serif" font-size="14.00" fill="#000000">EditorialService</text>
</g>
<!-- EditorialService&#45;&gt;EditorialModule -->
<g id="edge17" class="edge">
<title>EditorialService&#45;&gt;EditorialModule</title>
<path fill="none" stroke="#000000" d="M1604,-122.4854C1604,-134.1399 1604,-147 1604,-147 1604,-147 316,-147 316,-147 316,-147 316,-147.6831 316,-147.6831"/>
<polygon fill="#000000" stroke="#000000" points="312.5002,-143.8313 316,-153.8314 319.5002,-143.8314 312.5002,-143.8313"/>
</g>
</g>
</svg>
